<?xml version="1.0" standalone="no"?>
<!DOCTYPE svg PUBLIC "-//W3C//DTD SVG 20010904//EN"
 "http://www.w3.org/TR/2001/REC-SVG-20010904/DTD/svg10.dtd">
<svg version="1.0" xmlns="http://www.w3.org/2000/svg"
 width="700.000000pt" height="700.000000pt" viewBox="0 0 700.000000 700.000000"
 preserveAspectRatio="xMidYMid meet">
<metadata>
Created by potrace 1.11, written by Peter Selinger 2001-2013
</metadata>
<g transform="translate(0.000000,700.000000) scale(0.100000,-0.100000)"
fill="#000000" stroke="none">
<path d="M1033 6399 c-205 -51 -361 -199 -426 -404 l-22 -70 0 -1115 0 -1115
23 -70 c27 -79 60 -142 107 -200 18 -22 636 -643 1373 -1380 1001 -999 1356
-1349 1400 -1376 135 -81 286 -103 460 -65 37 8 127 52 174 84 24 17 522 509
1108 1095 825 826 1073 1079 1102 1129 121 199 107 460 -34 648 -32 42 -2680
2690 -2732 2732 -59 47 -107 72 -190 100 -60 21 -74 21 -1167 23 -1021 1
-1111 0 -1176 -16z m694 -585 c72 -22 140 -64 192 -119 86 -91 122 -188 117
-318 -6 -137 -63 -247 -171 -329 -109 -83 -267 -109 -397 -64 -186 62 -303
229 -297 420 7 199 121 350 314 412 51 16 185 15 242 -2z"/>
</g>
</svg>
